<mxfile host="app.diagrams.net" modified="2022-06-05T17:18:32.797Z" agent="5.0 (Windows NT 10.0; Win64; x64) AppleWebKit/537.36 (KHTML, like Gecko) Chrome/102.0.5005.63 Safari/537.36" etag="XLOO2n8hQ8EsVrDuKfLx" version="18.1.3" type="github">
  <diagram id="C1pqObuYRA7J3bohzl7f" name="Page-1">
    <mxGraphModel dx="9813" dy="3431" grid="1" gridSize="10" guides="1" tooltips="1" connect="1" arrows="1" fold="1" page="1" pageScale="1" pageWidth="3000" pageHeight="3000" math="0" shadow="0">
      <root>
        <mxCell id="0" />
        <mxCell id="1" parent="0" />
        <mxCell id="GxSKCjoKLXwjwlFbCsBX-8" value="Abstract Class" style="rounded=1;whiteSpace=wrap;html=1;fillColor=#fff2cc;strokeColor=#d6b656;" parent="1" vertex="1">
          <mxGeometry x="-8740" y="-2530" width="100" height="30" as="geometry" />
        </mxCell>
        <mxCell id="GxSKCjoKLXwjwlFbCsBX-9" value="Entity" style="rounded=1;whiteSpace=wrap;html=1;fillColor=#d5e8d4;strokeColor=#82b366;" parent="1" vertex="1">
          <mxGeometry x="-8620" y="-2530" width="100" height="30" as="geometry" />
        </mxCell>
        <mxCell id="GxSKCjoKLXwjwlFbCsBX-10" value="Aggragate" style="rounded=1;whiteSpace=wrap;html=1;fillColor=#e1d5e7;strokeColor=#9673a6;" parent="1" vertex="1">
          <mxGeometry x="-8500" y="-2530" width="100" height="30" as="geometry" />
        </mxCell>
        <mxCell id="GxSKCjoKLXwjwlFbCsBX-11" value="DP" style="rounded=1;whiteSpace=wrap;html=1;fillColor=#dae8fc;strokeColor=#6c8ebf;" parent="1" vertex="1">
          <mxGeometry x="-8380" y="-2530" width="100" height="30" as="geometry" />
        </mxCell>
        <mxCell id="GxSKCjoKLXwjwlFbCsBX-18" style="rounded=0;orthogonalLoop=1;jettySize=auto;html=1;exitX=1;exitY=0.25;exitDx=0;exitDy=0;endArrow=block;endFill=0;" parent="1" source="GxSKCjoKLXwjwlFbCsBX-14" target="GxSKCjoKLXwjwlFbCsBX-1" edge="1">
          <mxGeometry relative="1" as="geometry" />
        </mxCell>
        <mxCell id="GxSKCjoKLXwjwlFbCsBX-19" value="Extends" style="edgeLabel;html=1;align=center;verticalAlign=middle;resizable=0;points=[];" parent="GxSKCjoKLXwjwlFbCsBX-18" vertex="1" connectable="0">
          <mxGeometry x="-0.1826" y="1" relative="1" as="geometry">
            <mxPoint as="offset" />
          </mxGeometry>
        </mxCell>
        <mxCell id="GxSKCjoKLXwjwlFbCsBX-14" value="DeliverableRelation" style="swimlane;fontStyle=0;childLayout=stackLayout;horizontal=1;startSize=26;fillColor=#e1d5e7;horizontalStack=0;resizeParent=1;resizeParentMax=0;resizeLast=0;collapsible=1;marginBottom=0;strokeColor=#9673a6;" parent="1" vertex="1">
          <mxGeometry x="-8190" y="-1890" width="500" height="112" as="geometry" />
        </mxCell>
        <mxCell id="GxSKCjoKLXwjwlFbCsBX-15" value="- primary: InstanceId    拥有者ID" style="text;strokeColor=none;fillColor=none;align=left;verticalAlign=top;spacingLeft=4;spacingRight=4;overflow=hidden;rotatable=0;points=[[0,0.5],[1,0.5]];portConstraint=eastwest;" parent="GxSKCjoKLXwjwlFbCsBX-14" vertex="1">
          <mxGeometry y="26" width="500" height="26" as="geometry" />
        </mxCell>
        <mxCell id="GxSKCjoKLXwjwlFbCsBX-16" value="- secondary: DeliverableId    交付物引用ID" style="text;strokeColor=none;fillColor=none;align=left;verticalAlign=top;spacingLeft=4;spacingRight=4;overflow=hidden;rotatable=0;points=[[0,0.5],[1,0.5]];portConstraint=eastwest;" parent="GxSKCjoKLXwjwlFbCsBX-14" vertex="1">
          <mxGeometry y="52" width="500" height="26" as="geometry" />
        </mxCell>
        <mxCell id="GxSKCjoKLXwjwlFbCsBX-20" value="" style="line;strokeWidth=1;fillColor=none;align=left;verticalAlign=middle;spacingTop=-1;spacingLeft=3;spacingRight=3;rotatable=0;labelPosition=right;points=[];portConstraint=eastwest;" parent="GxSKCjoKLXwjwlFbCsBX-14" vertex="1">
          <mxGeometry y="78" width="500" height="8" as="geometry" />
        </mxCell>
        <mxCell id="GxSKCjoKLXwjwlFbCsBX-21" value="+ initializeDocument(DocumentService docService, DocInstanceId folderId)    初始化文档" style="text;strokeColor=none;fillColor=none;align=left;verticalAlign=top;spacingLeft=4;spacingRight=4;overflow=hidden;rotatable=0;points=[[0,0.5],[1,0.5]];portConstraint=eastwest;" parent="GxSKCjoKLXwjwlFbCsBX-14" vertex="1">
          <mxGeometry y="86" width="500" height="26" as="geometry" />
        </mxCell>
        <mxCell id="GxSKCjoKLXwjwlFbCsBX-22" value="InstanceId" style="swimlane;fontStyle=0;childLayout=stackLayout;horizontal=1;startSize=26;fillColor=#dae8fc;horizontalStack=0;resizeParent=1;resizeParentMax=0;resizeLast=0;collapsible=1;marginBottom=0;strokeColor=#6c8ebf;" parent="1" vertex="1">
          <mxGeometry x="-8790" y="-2370" width="330" height="112" as="geometry" />
        </mxCell>
        <mxCell id="GxSKCjoKLXwjwlFbCsBX-23" value="- id: Long    实体ID" style="text;strokeColor=none;fillColor=none;align=left;verticalAlign=top;spacingLeft=4;spacingRight=4;overflow=hidden;rotatable=0;points=[[0,0.5],[1,0.5]];portConstraint=eastwest;" parent="GxSKCjoKLXwjwlFbCsBX-22" vertex="1">
          <mxGeometry y="26" width="330" height="26" as="geometry" />
        </mxCell>
        <mxCell id="GxSKCjoKLXwjwlFbCsBX-24" value="- type: InstanceType    实体类型" style="text;strokeColor=none;fillColor=none;align=left;verticalAlign=top;spacingLeft=4;spacingRight=4;overflow=hidden;rotatable=0;points=[[0,0.5],[1,0.5]];portConstraint=eastwest;" parent="GxSKCjoKLXwjwlFbCsBX-22" vertex="1">
          <mxGeometry y="52" width="330" height="26" as="geometry" />
        </mxCell>
        <mxCell id="GxSKCjoKLXwjwlFbCsBX-25" value="" style="line;strokeWidth=1;fillColor=none;align=left;verticalAlign=middle;spacingTop=-1;spacingLeft=3;spacingRight=3;rotatable=0;labelPosition=right;points=[];portConstraint=eastwest;" parent="GxSKCjoKLXwjwlFbCsBX-22" vertex="1">
          <mxGeometry y="78" width="330" height="8" as="geometry" />
        </mxCell>
        <mxCell id="GxSKCjoKLXwjwlFbCsBX-26" value="+ of(Long id, InstanceType type)    初始化实体ID" style="text;strokeColor=none;fillColor=none;align=left;verticalAlign=top;spacingLeft=4;spacingRight=4;overflow=hidden;rotatable=0;points=[[0,0.5],[1,0.5]];portConstraint=eastwest;" parent="GxSKCjoKLXwjwlFbCsBX-22" vertex="1">
          <mxGeometry y="86" width="330" height="26" as="geometry" />
        </mxCell>
        <mxCell id="GxSKCjoKLXwjwlFbCsBX-27" value="Attachment" style="swimlane;fontStyle=0;childLayout=stackLayout;horizontal=1;startSize=26;fillColor=#e1d5e7;horizontalStack=0;resizeParent=1;resizeParentMax=0;resizeLast=0;collapsible=1;marginBottom=0;strokeColor=#9673a6;" parent="1" vertex="1">
          <mxGeometry x="-8240" y="-1670" width="500" height="138" as="geometry" />
        </mxCell>
        <mxCell id="GxSKCjoKLXwjwlFbCsBX-28" value="- primary: InstanceId    拥有者ID" style="text;strokeColor=none;fillColor=none;align=left;verticalAlign=top;spacingLeft=4;spacingRight=4;overflow=hidden;rotatable=0;points=[[0,0.5],[1,0.5]];portConstraint=eastwest;" parent="GxSKCjoKLXwjwlFbCsBX-27" vertex="1">
          <mxGeometry y="26" width="500" height="26" as="geometry" />
        </mxCell>
        <mxCell id="GxSKCjoKLXwjwlFbCsBX-29" value="- documentId: String    文档对象ID" style="text;strokeColor=none;fillColor=none;align=left;verticalAlign=top;spacingLeft=4;spacingRight=4;overflow=hidden;rotatable=0;points=[[0,0.5],[1,0.5]];portConstraint=eastwest;" parent="GxSKCjoKLXwjwlFbCsBX-27" vertex="1">
          <mxGeometry y="52" width="500" height="26" as="geometry" />
        </mxCell>
        <mxCell id="GxSKCjoKLXwjwlFbCsBX-32" value="- scope: String    作用域" style="text;strokeColor=none;fillColor=none;align=left;verticalAlign=top;spacingLeft=4;spacingRight=4;overflow=hidden;rotatable=0;points=[[0,0.5],[1,0.5]];portConstraint=eastwest;" parent="GxSKCjoKLXwjwlFbCsBX-27" vertex="1">
          <mxGeometry y="78" width="500" height="26" as="geometry" />
        </mxCell>
        <mxCell id="GxSKCjoKLXwjwlFbCsBX-30" value="" style="line;strokeWidth=1;fillColor=none;align=left;verticalAlign=middle;spacingTop=-1;spacingLeft=3;spacingRight=3;rotatable=0;labelPosition=right;points=[];portConstraint=eastwest;" parent="GxSKCjoKLXwjwlFbCsBX-27" vertex="1">
          <mxGeometry y="104" width="500" height="8" as="geometry" />
        </mxCell>
        <mxCell id="GxSKCjoKLXwjwlFbCsBX-31" value="+ initializeAttachment(DocumentService docService, DocInstanceId folderId)    初始化文档" style="text;strokeColor=none;fillColor=none;align=left;verticalAlign=top;spacingLeft=4;spacingRight=4;overflow=hidden;rotatable=0;points=[[0,0.5],[1,0.5]];portConstraint=eastwest;" parent="GxSKCjoKLXwjwlFbCsBX-27" vertex="1">
          <mxGeometry y="112" width="500" height="26" as="geometry" />
        </mxCell>
        <mxCell id="GxSKCjoKLXwjwlFbCsBX-33" style="rounded=0;orthogonalLoop=1;jettySize=auto;html=1;endArrow=block;endFill=0;" parent="1" source="GxSKCjoKLXwjwlFbCsBX-27" target="GxSKCjoKLXwjwlFbCsBX-1" edge="1">
          <mxGeometry relative="1" as="geometry">
            <mxPoint x="-7830" y="-1752" as="sourcePoint" />
            <mxPoint x="-7630" y="-1661.4444444444443" as="targetPoint" />
          </mxGeometry>
        </mxCell>
        <mxCell id="GxSKCjoKLXwjwlFbCsBX-34" value="Extends" style="edgeLabel;html=1;align=center;verticalAlign=middle;resizable=0;points=[];" parent="GxSKCjoKLXwjwlFbCsBX-33" vertex="1" connectable="0">
          <mxGeometry x="-0.1826" y="1" relative="1" as="geometry">
            <mxPoint as="offset" />
          </mxGeometry>
        </mxCell>
        <mxCell id="T1cl9DYxZVdn391FOhin-1" value="Client" style="swimlane;fontStyle=0;childLayout=stackLayout;horizontal=1;startSize=26;fillColor=#e1d5e7;horizontalStack=0;resizeParent=1;resizeParentMax=0;resizeLast=0;collapsible=1;marginBottom=0;strokeColor=#9673a6;" vertex="1" parent="1">
          <mxGeometry x="-7170" y="-1910" width="500" height="104" as="geometry" />
        </mxCell>
        <mxCell id="T1cl9DYxZVdn391FOhin-2" value="- name: String    客户名称" style="text;strokeColor=none;fillColor=none;align=left;verticalAlign=top;spacingLeft=4;spacingRight=4;overflow=hidden;rotatable=0;points=[[0,0.5],[1,0.5]];portConstraint=eastwest;" vertex="1" parent="T1cl9DYxZVdn391FOhin-1">
          <mxGeometry y="26" width="500" height="26" as="geometry" />
        </mxCell>
        <mxCell id="T1cl9DYxZVdn391FOhin-3" value="- contact: Contact    联系信息" style="text;strokeColor=none;fillColor=none;align=left;verticalAlign=top;spacingLeft=4;spacingRight=4;overflow=hidden;rotatable=0;points=[[0,0.5],[1,0.5]];portConstraint=eastwest;" vertex="1" parent="T1cl9DYxZVdn391FOhin-1">
          <mxGeometry y="52" width="500" height="26" as="geometry" />
        </mxCell>
        <mxCell id="T1cl9DYxZVdn391FOhin-20" value="- attribution: Attribution    归属地" style="text;strokeColor=none;fillColor=none;align=left;verticalAlign=top;spacingLeft=4;spacingRight=4;overflow=hidden;rotatable=0;points=[[0,0.5],[1,0.5]];portConstraint=eastwest;" vertex="1" parent="T1cl9DYxZVdn391FOhin-1">
          <mxGeometry y="78" width="500" height="26" as="geometry" />
        </mxCell>
        <mxCell id="T1cl9DYxZVdn391FOhin-6" style="rounded=0;orthogonalLoop=1;jettySize=auto;html=1;endArrow=block;endFill=0;" edge="1" parent="1" source="T1cl9DYxZVdn391FOhin-1" target="GxSKCjoKLXwjwlFbCsBX-1">
          <mxGeometry relative="1" as="geometry">
            <mxPoint x="-7830" y="-1752" as="sourcePoint" />
            <mxPoint x="-7630" y="-1661.4444444444443" as="targetPoint" />
          </mxGeometry>
        </mxCell>
        <mxCell id="T1cl9DYxZVdn391FOhin-7" value="Extends" style="edgeLabel;html=1;align=center;verticalAlign=middle;resizable=0;points=[];" vertex="1" connectable="0" parent="T1cl9DYxZVdn391FOhin-6">
          <mxGeometry x="-0.1826" y="1" relative="1" as="geometry">
            <mxPoint as="offset" />
          </mxGeometry>
        </mxCell>
        <mxCell id="T1cl9DYxZVdn391FOhin-10" value="Contact" style="swimlane;fontStyle=0;childLayout=stackLayout;horizontal=1;startSize=26;fillColor=#dae8fc;horizontalStack=0;resizeParent=1;resizeParentMax=0;resizeLast=0;collapsible=1;marginBottom=0;strokeColor=#6c8ebf;" vertex="1" parent="1">
          <mxGeometry x="-7170" y="-2140" width="230" height="104" as="geometry" />
        </mxCell>
        <mxCell id="T1cl9DYxZVdn391FOhin-11" value="- person: String    联系人" style="text;strokeColor=none;fillColor=none;align=left;verticalAlign=top;spacingLeft=4;spacingRight=4;overflow=hidden;rotatable=0;points=[[0,0.5],[1,0.5]];portConstraint=eastwest;" vertex="1" parent="T1cl9DYxZVdn391FOhin-10">
          <mxGeometry y="26" width="230" height="26" as="geometry" />
        </mxCell>
        <mxCell id="T1cl9DYxZVdn391FOhin-12" value="- way: String    联系方式" style="text;strokeColor=none;fillColor=none;align=left;verticalAlign=top;spacingLeft=4;spacingRight=4;overflow=hidden;rotatable=0;points=[[0,0.5],[1,0.5]];portConstraint=eastwest;" vertex="1" parent="T1cl9DYxZVdn391FOhin-10">
          <mxGeometry y="52" width="230" height="26" as="geometry" />
        </mxCell>
        <mxCell id="T1cl9DYxZVdn391FOhin-15" value="- address: String    联系地址" style="text;strokeColor=none;fillColor=none;align=left;verticalAlign=top;spacingLeft=4;spacingRight=4;overflow=hidden;rotatable=0;points=[[0,0.5],[1,0.5]];portConstraint=eastwest;" vertex="1" parent="T1cl9DYxZVdn391FOhin-10">
          <mxGeometry y="78" width="230" height="26" as="geometry" />
        </mxCell>
        <mxCell id="T1cl9DYxZVdn391FOhin-16" value="Attribution" style="swimlane;fontStyle=0;childLayout=stackLayout;horizontal=1;startSize=26;fillColor=#dae8fc;horizontalStack=0;resizeParent=1;resizeParentMax=0;resizeLast=0;collapsible=1;marginBottom=0;strokeColor=#6c8ebf;" vertex="1" parent="1">
          <mxGeometry x="-6880" y="-2140" width="230" height="78" as="geometry" />
        </mxCell>
        <mxCell id="T1cl9DYxZVdn391FOhin-17" value="- area: String    地域" style="text;strokeColor=none;fillColor=none;align=left;verticalAlign=top;spacingLeft=4;spacingRight=4;overflow=hidden;rotatable=0;points=[[0,0.5],[1,0.5]];portConstraint=eastwest;" vertex="1" parent="T1cl9DYxZVdn391FOhin-16">
          <mxGeometry y="26" width="230" height="26" as="geometry" />
        </mxCell>
        <mxCell id="T1cl9DYxZVdn391FOhin-18" value="- nation: String    国家" style="text;strokeColor=none;fillColor=none;align=left;verticalAlign=top;spacingLeft=4;spacingRight=4;overflow=hidden;rotatable=0;points=[[0,0.5],[1,0.5]];portConstraint=eastwest;" vertex="1" parent="T1cl9DYxZVdn391FOhin-16">
          <mxGeometry y="52" width="230" height="26" as="geometry" />
        </mxCell>
        <mxCell id="T1cl9DYxZVdn391FOhin-21" value="" style="endArrow=none;dashed=1;html=1;dashPattern=1 3;strokeWidth=2;rounded=0;" edge="1" parent="1">
          <mxGeometry width="50" height="50" relative="1" as="geometry">
            <mxPoint x="-7460" y="-378" as="sourcePoint" />
            <mxPoint x="-7460" y="-2700" as="targetPoint" />
          </mxGeometry>
        </mxCell>
        <mxCell id="GxSKCjoKLXwjwlFbCsBX-1" value="BaseEntity" style="swimlane;fontStyle=2;childLayout=stackLayout;horizontal=1;startSize=26;fillColor=#fff2cc;horizontalStack=0;resizeParent=1;resizeParentMax=0;resizeLast=0;collapsible=1;marginBottom=0;strokeColor=#d6b656;" parent="1" vertex="1">
          <mxGeometry x="-7620" y="-1698" width="320" height="182" as="geometry" />
        </mxCell>
        <mxCell id="GxSKCjoKLXwjwlFbCsBX-7" value="- id: Long    唯一ID（全局唯一ID）" style="text;align=left;verticalAlign=top;spacingLeft=4;spacingRight=4;overflow=hidden;rotatable=0;points=[[0,0.5],[1,0.5]];portConstraint=eastwest;rounded=0;shadow=0;html=0;" parent="GxSKCjoKLXwjwlFbCsBX-1" vertex="1">
          <mxGeometry y="26" width="320" height="26" as="geometry" />
        </mxCell>
        <mxCell id="GxSKCjoKLXwjwlFbCsBX-2" value="- lastModifer: String    最后修改者（用户名）" style="text;align=left;verticalAlign=top;spacingLeft=4;spacingRight=4;overflow=hidden;rotatable=0;points=[[0,0.5],[1,0.5]];portConstraint=eastwest;rounded=0;shadow=0;html=0;" parent="GxSKCjoKLXwjwlFbCsBX-1" vertex="1">
          <mxGeometry y="52" width="320" height="26" as="geometry" />
        </mxCell>
        <mxCell id="GxSKCjoKLXwjwlFbCsBX-3" value="- lastModifiedTime: ZonedDateTime    最后修改时间" style="text;align=left;verticalAlign=top;spacingLeft=4;spacingRight=4;overflow=hidden;rotatable=0;points=[[0,0.5],[1,0.5]];portConstraint=eastwest;rounded=0;shadow=0;html=0;" parent="GxSKCjoKLXwjwlFbCsBX-1" vertex="1">
          <mxGeometry y="78" width="320" height="26" as="geometry" />
        </mxCell>
        <mxCell id="GxSKCjoKLXwjwlFbCsBX-4" value="- creator: String    创建者（用户名）" style="text;align=left;verticalAlign=top;spacingLeft=4;spacingRight=4;overflow=hidden;rotatable=0;points=[[0,0.5],[1,0.5]];portConstraint=eastwest;rounded=0;shadow=0;html=0;" parent="GxSKCjoKLXwjwlFbCsBX-1" vertex="1">
          <mxGeometry y="104" width="320" height="26" as="geometry" />
        </mxCell>
        <mxCell id="GxSKCjoKLXwjwlFbCsBX-5" value="- createdTime: ZonedDateTime    创建时间" style="text;align=left;verticalAlign=top;spacingLeft=4;spacingRight=4;overflow=hidden;rotatable=0;points=[[0,0.5],[1,0.5]];portConstraint=eastwest;rounded=0;shadow=0;html=0;" parent="GxSKCjoKLXwjwlFbCsBX-1" vertex="1">
          <mxGeometry y="130" width="320" height="26" as="geometry" />
        </mxCell>
        <mxCell id="GxSKCjoKLXwjwlFbCsBX-6" value="- version: Long    版本" style="text;align=left;verticalAlign=top;spacingLeft=4;spacingRight=4;overflow=hidden;rotatable=0;points=[[0,0.5],[1,0.5]];portConstraint=eastwest;" parent="GxSKCjoKLXwjwlFbCsBX-1" vertex="1">
          <mxGeometry y="156" width="320" height="26" as="geometry" />
        </mxCell>
        <mxCell id="T1cl9DYxZVdn391FOhin-22" value="Project 工事" style="swimlane;fontStyle=0;childLayout=stackLayout;horizontal=1;startSize=26;fillColor=#e1d5e7;horizontalStack=0;resizeParent=1;resizeParentMax=0;resizeLast=0;collapsible=1;marginBottom=0;strokeColor=#9673a6;" vertex="1" parent="1">
          <mxGeometry x="-7360" y="-1420" width="500" height="390" as="geometry" />
        </mxCell>
        <mxCell id="T1cl9DYxZVdn391FOhin-23" value="- caseNumber: String    案件号" style="text;strokeColor=none;fillColor=none;align=left;verticalAlign=top;spacingLeft=4;spacingRight=4;overflow=hidden;rotatable=0;points=[[0,0.5],[1,0.5]];portConstraint=eastwest;" vertex="1" parent="T1cl9DYxZVdn391FOhin-22">
          <mxGeometry y="26" width="500" height="26" as="geometry" />
        </mxCell>
        <mxCell id="T1cl9DYxZVdn391FOhin-24" value="- projectKey: String    工事号" style="text;strokeColor=none;fillColor=none;align=left;verticalAlign=top;spacingLeft=4;spacingRight=4;overflow=hidden;rotatable=0;points=[[0,0.5],[1,0.5]];portConstraint=eastwest;" vertex="1" parent="T1cl9DYxZVdn391FOhin-22">
          <mxGeometry y="52" width="500" height="26" as="geometry" />
        </mxCell>
        <mxCell id="T1cl9DYxZVdn391FOhin-25" value="- finishDate: Date    验收预定日" style="text;strokeColor=none;fillColor=none;align=left;verticalAlign=top;spacingLeft=4;spacingRight=4;overflow=hidden;rotatable=0;points=[[0,0.5],[1,0.5]];portConstraint=eastwest;" vertex="1" parent="T1cl9DYxZVdn391FOhin-22">
          <mxGeometry y="78" width="500" height="26" as="geometry" />
        </mxCell>
        <mxCell id="T1cl9DYxZVdn391FOhin-26" value="- name: String    工事名称" style="text;strokeColor=none;fillColor=none;align=left;verticalAlign=top;spacingLeft=4;spacingRight=4;overflow=hidden;rotatable=0;points=[[0,0.5],[1,0.5]];portConstraint=eastwest;" vertex="1" parent="T1cl9DYxZVdn391FOhin-22">
          <mxGeometry y="104" width="500" height="26" as="geometry" />
        </mxCell>
        <mxCell id="T1cl9DYxZVdn391FOhin-27" value="- principal: UserId    工事担当" style="text;strokeColor=none;fillColor=none;align=left;verticalAlign=top;spacingLeft=4;spacingRight=4;overflow=hidden;rotatable=0;points=[[0,0.5],[1,0.5]];portConstraint=eastwest;" vertex="1" parent="T1cl9DYxZVdn391FOhin-22">
          <mxGeometry y="130" width="500" height="26" as="geometry" />
        </mxCell>
        <mxCell id="T1cl9DYxZVdn391FOhin-28" value="- principalBL: UserId    工事担当BL" style="text;strokeColor=none;fillColor=none;align=left;verticalAlign=top;spacingLeft=4;spacingRight=4;overflow=hidden;rotatable=0;points=[[0,0.5],[1,0.5]];portConstraint=eastwest;" vertex="1" parent="T1cl9DYxZVdn391FOhin-22">
          <mxGeometry y="156" width="500" height="26" as="geometry" />
        </mxCell>
        <mxCell id="T1cl9DYxZVdn391FOhin-29" value="- quantity: Integer   数量" style="text;strokeColor=none;fillColor=none;align=left;verticalAlign=top;spacingLeft=4;spacingRight=4;overflow=hidden;rotatable=0;points=[[0,0.5],[1,0.5]];portConstraint=eastwest;" vertex="1" parent="T1cl9DYxZVdn391FOhin-22">
          <mxGeometry y="182" width="500" height="26" as="geometry" />
        </mxCell>
        <mxCell id="T1cl9DYxZVdn391FOhin-30" value="- workType: String    工种" style="text;strokeColor=none;fillColor=none;align=left;verticalAlign=top;spacingLeft=4;spacingRight=4;overflow=hidden;rotatable=0;points=[[0,0.5],[1,0.5]];portConstraint=eastwest;" vertex="1" parent="T1cl9DYxZVdn391FOhin-22">
          <mxGeometry y="208" width="500" height="26" as="geometry" />
        </mxCell>
        <mxCell id="T1cl9DYxZVdn391FOhin-31" value="- category: ProjectCategory    专用/通用" style="text;strokeColor=none;fillColor=none;align=left;verticalAlign=top;spacingLeft=4;spacingRight=4;overflow=hidden;rotatable=0;points=[[0,0.5],[1,0.5]];portConstraint=eastwest;" vertex="1" parent="T1cl9DYxZVdn391FOhin-22">
          <mxGeometry y="234" width="500" height="26" as="geometry" />
        </mxCell>
        <mxCell id="T1cl9DYxZVdn391FOhin-32" value="- type: ProjectType    新/改" style="text;strokeColor=none;fillColor=none;align=left;verticalAlign=top;spacingLeft=4;spacingRight=4;overflow=hidden;rotatable=0;points=[[0,0.5],[1,0.5]];portConstraint=eastwest;" vertex="1" parent="T1cl9DYxZVdn391FOhin-22">
          <mxGeometry y="260" width="500" height="26" as="geometry" />
        </mxCell>
        <mxCell id="T1cl9DYxZVdn391FOhin-33" value="- content: String    工事内容" style="text;strokeColor=none;fillColor=none;align=left;verticalAlign=top;spacingLeft=4;spacingRight=4;overflow=hidden;rotatable=0;points=[[0,0.5],[1,0.5]];portConstraint=eastwest;" vertex="1" parent="T1cl9DYxZVdn391FOhin-22">
          <mxGeometry y="286" width="500" height="26" as="geometry" />
        </mxCell>
        <mxCell id="T1cl9DYxZVdn391FOhin-34" value="- note: String    备注" style="text;strokeColor=none;fillColor=none;align=left;verticalAlign=top;spacingLeft=4;spacingRight=4;overflow=hidden;rotatable=0;points=[[0,0.5],[1,0.5]];portConstraint=eastwest;" vertex="1" parent="T1cl9DYxZVdn391FOhin-22">
          <mxGeometry y="312" width="500" height="26" as="geometry" />
        </mxCell>
        <mxCell id="T1cl9DYxZVdn391FOhin-35" value="- createdDate: Date    创建时间" style="text;strokeColor=none;fillColor=none;align=left;verticalAlign=top;spacingLeft=4;spacingRight=4;overflow=hidden;rotatable=0;points=[[0,0.5],[1,0.5]];portConstraint=eastwest;" vertex="1" parent="T1cl9DYxZVdn391FOhin-22">
          <mxGeometry y="338" width="500" height="26" as="geometry" />
        </mxCell>
        <mxCell id="T1cl9DYxZVdn391FOhin-36" value="- creatorId: UserId    创建担当" style="text;strokeColor=none;fillColor=none;align=left;verticalAlign=top;spacingLeft=4;spacingRight=4;overflow=hidden;rotatable=0;points=[[0,0.5],[1,0.5]];portConstraint=eastwest;" vertex="1" parent="T1cl9DYxZVdn391FOhin-22">
          <mxGeometry y="364" width="500" height="26" as="geometry" />
        </mxCell>
        <mxCell id="T1cl9DYxZVdn391FOhin-37" style="rounded=0;orthogonalLoop=1;jettySize=auto;html=1;endArrow=block;endFill=0;" edge="1" parent="1" source="T1cl9DYxZVdn391FOhin-22" target="GxSKCjoKLXwjwlFbCsBX-1">
          <mxGeometry relative="1" as="geometry">
            <mxPoint x="-7021.87250996016" y="-1796" as="sourcePoint" />
            <mxPoint x="-7290" y="-1671.3703703703704" as="targetPoint" />
          </mxGeometry>
        </mxCell>
        <mxCell id="T1cl9DYxZVdn391FOhin-38" value="Extends" style="edgeLabel;html=1;align=center;verticalAlign=middle;resizable=0;points=[];" vertex="1" connectable="0" parent="T1cl9DYxZVdn391FOhin-37">
          <mxGeometry x="-0.1826" y="1" relative="1" as="geometry">
            <mxPoint as="offset" />
          </mxGeometry>
        </mxCell>
        <mxCell id="T1cl9DYxZVdn391FOhin-39" value="Case 案件" style="swimlane;fontStyle=0;childLayout=stackLayout;horizontal=1;startSize=26;fillColor=#e1d5e7;horizontalStack=0;resizeParent=1;resizeParentMax=0;resizeLast=0;collapsible=1;marginBottom=0;strokeColor=#9673a6;" vertex="1" parent="1">
          <mxGeometry x="-6810" y="-1750" width="500" height="208" as="geometry" />
        </mxCell>
        <mxCell id="T1cl9DYxZVdn391FOhin-56" value="- classif: CaseClassification    案件归属" style="text;strokeColor=none;fillColor=none;align=left;verticalAlign=top;spacingLeft=4;spacingRight=4;overflow=hidden;rotatable=0;points=[[0,0.5],[1,0.5]];portConstraint=eastwest;" vertex="1" parent="T1cl9DYxZVdn391FOhin-39">
          <mxGeometry y="26" width="500" height="26" as="geometry" />
        </mxCell>
        <mxCell id="T1cl9DYxZVdn391FOhin-57" value="- domain: String    领域" style="text;strokeColor=none;fillColor=none;align=left;verticalAlign=top;spacingLeft=4;spacingRight=4;overflow=hidden;rotatable=0;points=[[0,0.5],[1,0.5]];portConstraint=eastwest;" vertex="1" parent="T1cl9DYxZVdn391FOhin-39">
          <mxGeometry y="52" width="500" height="26" as="geometry" />
        </mxCell>
        <mxCell id="T1cl9DYxZVdn391FOhin-67" value="- acceptedDate: Date    受付日期" style="text;strokeColor=none;fillColor=none;align=left;verticalAlign=top;spacingLeft=4;spacingRight=4;overflow=hidden;rotatable=0;points=[[0,0.5],[1,0.5]];portConstraint=eastwest;" vertex="1" parent="T1cl9DYxZVdn391FOhin-39">
          <mxGeometry y="78" width="500" height="26" as="geometry" />
        </mxCell>
        <mxCell id="T1cl9DYxZVdn391FOhin-40" value="- caseNo: String    案件号" style="text;strokeColor=none;fillColor=none;align=left;verticalAlign=top;spacingLeft=4;spacingRight=4;overflow=hidden;rotatable=0;points=[[0,0.5],[1,0.5]];portConstraint=eastwest;" vertex="1" parent="T1cl9DYxZVdn391FOhin-39">
          <mxGeometry y="104" width="500" height="26" as="geometry" />
        </mxCell>
        <mxCell id="T1cl9DYxZVdn391FOhin-41" value="- name: String    案件名" style="text;strokeColor=none;fillColor=none;align=left;verticalAlign=top;spacingLeft=4;spacingRight=4;overflow=hidden;rotatable=0;points=[[0,0.5],[1,0.5]];portConstraint=eastwest;" vertex="1" parent="T1cl9DYxZVdn391FOhin-39">
          <mxGeometry y="130" width="500" height="26" as="geometry" />
        </mxCell>
        <mxCell id="T1cl9DYxZVdn391FOhin-42" value="- clientId: ClientId    客户Id" style="text;strokeColor=none;fillColor=none;align=left;verticalAlign=top;spacingLeft=4;spacingRight=4;overflow=hidden;rotatable=0;points=[[0,0.5],[1,0.5]];portConstraint=eastwest;" vertex="1" parent="T1cl9DYxZVdn391FOhin-39">
          <mxGeometry y="156" width="500" height="26" as="geometry" />
        </mxCell>
        <mxCell id="T1cl9DYxZVdn391FOhin-43" value="- caseDeleg: CaseDelegation    依赖信息" style="text;strokeColor=none;fillColor=none;align=left;verticalAlign=top;spacingLeft=4;spacingRight=4;overflow=hidden;rotatable=0;points=[[0,0.5],[1,0.5]];portConstraint=eastwest;" vertex="1" parent="T1cl9DYxZVdn391FOhin-39">
          <mxGeometry y="182" width="500" height="26" as="geometry" />
        </mxCell>
        <mxCell id="T1cl9DYxZVdn391FOhin-54" style="rounded=0;orthogonalLoop=1;jettySize=auto;html=1;endArrow=block;endFill=0;" edge="1" parent="1" source="T1cl9DYxZVdn391FOhin-39" target="GxSKCjoKLXwjwlFbCsBX-1">
          <mxGeometry relative="1" as="geometry">
            <mxPoint x="-7021.87250996016" y="-1796" as="sourcePoint" />
            <mxPoint x="-7290" y="-1671.3703703703704" as="targetPoint" />
          </mxGeometry>
        </mxCell>
        <mxCell id="T1cl9DYxZVdn391FOhin-55" value="Extends" style="edgeLabel;html=1;align=center;verticalAlign=middle;resizable=0;points=[];" vertex="1" connectable="0" parent="T1cl9DYxZVdn391FOhin-54">
          <mxGeometry x="-0.1826" y="1" relative="1" as="geometry">
            <mxPoint as="offset" />
          </mxGeometry>
        </mxCell>
        <mxCell id="T1cl9DYxZVdn391FOhin-58" value="CaseClassification" style="swimlane;fontStyle=0;childLayout=stackLayout;horizontal=1;startSize=26;fillColor=#dae8fc;horizontalStack=0;resizeParent=1;resizeParentMax=0;resizeLast=0;collapsible=1;marginBottom=0;strokeColor=#6c8ebf;" vertex="1" parent="1">
          <mxGeometry x="-6520" y="-1950" width="260" height="130" as="geometry" />
        </mxCell>
        <mxCell id="T1cl9DYxZVdn391FOhin-59" value="- prodDistinctId: ProdDistinctId    制品区分" style="text;strokeColor=none;fillColor=none;align=left;verticalAlign=top;spacingLeft=4;spacingRight=4;overflow=hidden;rotatable=0;points=[[0,0.5],[1,0.5]];portConstraint=eastwest;" vertex="1" parent="T1cl9DYxZVdn391FOhin-58">
          <mxGeometry y="26" width="260" height="26" as="geometry" />
        </mxCell>
        <mxCell id="T1cl9DYxZVdn391FOhin-64" value="- funcDistinctId: FuncDistinctId    机能区分" style="text;strokeColor=none;fillColor=none;align=left;verticalAlign=top;spacingLeft=4;spacingRight=4;overflow=hidden;rotatable=0;points=[[0,0.5],[1,0.5]];portConstraint=eastwest;" vertex="1" parent="T1cl9DYxZVdn391FOhin-58">
          <mxGeometry y="52" width="260" height="26" as="geometry" />
        </mxCell>
        <mxCell id="T1cl9DYxZVdn391FOhin-65" value="- cmdtyDistinctId: CmdtyDistinctId    商品区分" style="text;strokeColor=none;fillColor=none;align=left;verticalAlign=top;spacingLeft=4;spacingRight=4;overflow=hidden;rotatable=0;points=[[0,0.5],[1,0.5]];portConstraint=eastwest;" vertex="1" parent="T1cl9DYxZVdn391FOhin-58">
          <mxGeometry y="78" width="260" height="26" as="geometry" />
        </mxCell>
        <mxCell id="T1cl9DYxZVdn391FOhin-66" value="- bizTypeId: BizTypeId    业务种类" style="text;strokeColor=none;fillColor=none;align=left;verticalAlign=top;spacingLeft=4;spacingRight=4;overflow=hidden;rotatable=0;points=[[0,0.5],[1,0.5]];portConstraint=eastwest;" vertex="1" parent="T1cl9DYxZVdn391FOhin-58">
          <mxGeometry y="104" width="260" height="26" as="geometry" />
        </mxCell>
        <mxCell id="T1cl9DYxZVdn391FOhin-68" value="CaseDelegation" style="swimlane;fontStyle=0;childLayout=stackLayout;horizontal=1;startSize=26;fillColor=#dae8fc;horizontalStack=0;resizeParent=1;resizeParentMax=0;resizeLast=0;collapsible=1;marginBottom=0;strokeColor=#6c8ebf;" vertex="1" parent="1">
          <mxGeometry x="-6200" y="-1960" width="260" height="130" as="geometry" />
        </mxCell>
        <mxCell id="T1cl9DYxZVdn391FOhin-69" value="- delDistinctIds: DelegDistinctId[]    依赖区分" style="text;strokeColor=none;fillColor=none;align=left;verticalAlign=top;spacingLeft=4;spacingRight=4;overflow=hidden;rotatable=0;points=[[0,0.5],[1,0.5]];portConstraint=eastwest;" vertex="1" parent="T1cl9DYxZVdn391FOhin-68">
          <mxGeometry y="26" width="260" height="26" as="geometry" />
        </mxCell>
        <mxCell id="T1cl9DYxZVdn391FOhin-70" value="- funcDistinctId: FuncDistinctId    机能区分" style="text;strokeColor=none;fillColor=none;align=left;verticalAlign=top;spacingLeft=4;spacingRight=4;overflow=hidden;rotatable=0;points=[[0,0.5],[1,0.5]];portConstraint=eastwest;" vertex="1" parent="T1cl9DYxZVdn391FOhin-68">
          <mxGeometry y="52" width="260" height="26" as="geometry" />
        </mxCell>
        <mxCell id="T1cl9DYxZVdn391FOhin-71" value="- cmdtyDistinctId: CmdtyDistinctId    商品区分" style="text;strokeColor=none;fillColor=none;align=left;verticalAlign=top;spacingLeft=4;spacingRight=4;overflow=hidden;rotatable=0;points=[[0,0.5],[1,0.5]];portConstraint=eastwest;" vertex="1" parent="T1cl9DYxZVdn391FOhin-68">
          <mxGeometry y="78" width="260" height="26" as="geometry" />
        </mxCell>
        <mxCell id="T1cl9DYxZVdn391FOhin-72" value="- bizTypeId: BizTypeId    业务种类" style="text;strokeColor=none;fillColor=none;align=left;verticalAlign=top;spacingLeft=4;spacingRight=4;overflow=hidden;rotatable=0;points=[[0,0.5],[1,0.5]];portConstraint=eastwest;" vertex="1" parent="T1cl9DYxZVdn391FOhin-68">
          <mxGeometry y="104" width="260" height="26" as="geometry" />
        </mxCell>
      </root>
    </mxGraphModel>
  </diagram>
</mxfile>
